<svg
   width="1889.9"
   height="651.66"
   version="1.1"
   viewBox="0 0 1889.9 651.66"
   xmlns="http://www.w3.org/2000/svg"
   xmlns:svg="http://www.w3.org/2000/svg">
    <path
       d="m488.01 46.345s43.17 40.234 53.424 54.072c1.7686 2.3855 3.8285 4.7463 5.9034 7.1499l0.73252 0.85019c9.8854 11.505 19.376 24.159-1.3998 45.255-24.754 25.111-30.911 52.491-21.843 58.888 9.1785 6.4823 55.399-38.176 55.399-38.176s48.189 79.606 43.847 83.228c-2.4968 2.0951-24.706 14.253-47.588 26.887l-2.3687 1.3083c-15.797 8.728-31.601 17.526-41.167 23.248-23.135 13.844 107.61-15.406 107.61-15.406l54.174 72.694s-151.61 66.09-121.07 70.449c31.867 4.5429 139.03-31.613 139.03-31.613s10.61 19.738 22.167 44.008c16.701 7.5094 35.705 17.222 55.718 29.605-50.118-64.825-70.109-101.24-71.263-103.37l-0.0534-0.0987s114.88 14.868 135.15 51.36c28.382-85.149 63.72-51.266 67.574-50.008 66.223 21.625 68.93 155.43 68.93 155.43l3.6e-4 0.10826c0.0175 3.5032 0.89162 90.393 44.599 21.516 44.599-70.284 133.8-106.77 133.8-106.77l-1.8505 27.741c8.5369 8.3296 17.442 23.056 25.751 47.984 9.0498-16.29 36.952-28.271 65.071-36.544-0.01-2.1975-0.012-4.5-0.013-6.8752l1e-4 -3.4934c0-4.3239 0.01-8.8317 0.01-13.359l1e-4 -2.4704c0-16.469-0.1086-32.802-0.841-41.099-1.8333-20.75 2.9809-23.897 39.147-17.649 38.735 6.676 60.781 18.686 50.648 7.5039-9.9676-10.991-75.9-39.918-72.028-49.188 3.9054-9.3474 4.3648-33.482 4.3648-33.482s4.459 0.78536 36.065 10.94c33.463 10.768 44.594 13.503 26.652-16.185-17.484-28.932-34.022-46.44-24.863-71.433 9.3426-25.557 18.194-46.876 28.928-72.746 0 0 37.948 30.166 47.235 40.829 1.2252 1.407 2.5891 2.7911 3.9922 4.185l0.6501 0.64416 0.6534 0.64625c9.0533 8.9578 18.465 18.725 2.391 37.805-18.694 22.164-21.997 44.988-14.157 49.646 7.94 4.706 42.974-34.86 42.974-34.86s0.018 0.0248 0.053 0.0735l0.1553 0.2167c3.2811 4.5816 44.231 61.914 41.034 65.035-1.9745 1.941-20.559 14.071-39.148 26.329l-1.8583 1.2258c-11.762 7.7612-23.304 15.439-30.407 20.477-18.085 12.835 87.224-19.589 87.224-19.589l49.037 56.028s-10.193 5.429-24.012 13.163c13.555-4.2112 34.949-5.0755 55.852 3.4193 34.915 14.2 48.837 8.51 48.378-2.8315-0.4533-11.236-88.564-32.049-91.689-31.559-3.101 0.47811 41.185-55.065 52.182-72.753 10.993-17.696 16.726-17.334 41.838 9.2546 26.898 28.473 37.273 51.247 35.902 36.253-0.6072-6.6376-8.0763-22.948-15.32-39.347l-0.9638-2.1861c-8.4912-19.3-16.233-38.132-11.646-40.834 2.5321-1.4943 5.5797-4.1554 8.631-7.181l0.6312-0.63091c0.6309-0.63559 1.2604-1.2844 1.8841-1.9393l0.6215-0.65671c6.2954-6.692 11.826-13.772 11.826-13.772l0.01 9e-3c0.1907 0.20891 3.6463 4.0835 22.193 30.274 20.24 28.598 27.477 37.429 30.992 2.9632 3.4269-33.579 0.7405-57.471 23.063-71.999 22.8-14.867 42.672-26.638 66.768-40.917 0 0 0.8228 3.1627 2.0582 8.0909l0.2922 1.168c3.59 14.377 10.101 41.469 10.817 51.608 1.0192 14.283 9.3995 32.384-19.856 39.219-28.235 6.574-44.574 22.858-41.11 31.263 3.4986 8.5118 55.228-2.2194 55.228-2.2194s-1.7222 76.283-6.3271 76.893c-2.6547 0.35876-23.408-0.93349-44.836-2.1893l-2.2184-0.12971c-14.796-0.86294-29.628-1.6809-38.78-1.9002-22.138-0.52677 81.363 36.417 81.363 36.417l5.4789 74.111s-134.21-20.531-114.97-4.1434c20.078 17.097 110.29 38.93 110.29 38.93s-2.2443 30.405-6.7112 59.654c12.406 16.915 29.906 49.317 38 97.203l-53.276 1e-4c2.2993-1.7732 5.9484-3.9883 6.5414-0.743-0.6041-15.828-1.3164-34.108-2.0205-51.16-2.3454 5.1864-4.9258 8.1821-7.7403 7.8961-12.084-1.2276-79.394-8.4528-97.948-3.3591 0.073 2.7627 0.073 5.7296-0.023 8.8805 0.9472 0.63526 2.0567 1.3047 3.3298 2.0101 34.262 18.979 75.673 32.105 90.423 36.476l-462.49-3e-3c1.0612-0.98979 2.111-1.9714 3.1494-2.9448-0.5455-0.68809-1.0855-1.3718-1.6211-2.0498-1.2157 1.6908-2.4456 3.3576-3.6888 4.9993l-1167.1-3.4e-4c-5.0613-7.8572-11.019-17.28-17.055-26.772l-1.6126-2.5347c-10.757-16.894-21.527-33.583-27.695-41.62-15.426-20.097-12.536-26.445 28.641-43.465 44.097-18.245 74.552-20.206 56.858-25.108-17.4-4.8224-103.92 8.2127-106-3.8075-2.096-12.12-17.377-37.177-17.377-37.177s0.0081-3e-3 0.02623-0.0104l0.03487-0.0134c0.57087-0.21719 5.5024-1.9952 29.592-8.3459l1.8429-0.48492c3.7586-0.98717 7.9565-2.0789 12.644-3.2854 41.36-10.632 54.558-15.037 16.776-33.869-36.824-18.359-65.221-25.606-72.142-57.182-7.0913-32.269-11.932-59.877-17.799-93.367 0 0 58.615 6.3588 75.108 11.289 2.5099 0.74974 5.1892 1.3486 7.9143 1.9468l1.0922 0.23962c0.36468 0.0801 0.72987 0.16055 1.0953 0.2417l1.0967 0.24592c14.441 3.275 28.777 8.2022 24.938 36.744-4.7068 34.854 6.8028 60.408 17.882 60.107 11.219-0.31444 21.339-63.602 21.339-63.602s86.247 34.811 84.951 40.299c-1.2648 5.4513-31.391 69.827-41.908 95.542-10.178 24.884 76.698-76.603 76.698-76.603l86.882 25.715s-6.8413 12.046-15.9 28.796c10.842-13.466 32.841-29.125 60.861-34.133 45.245-8.0833 55.847-22.983 47.947-34.354-7.83-11.271-112.17 24.581-115.06 27.112-1.6712 1.454 0.72716-26.842 2.9848-55.813l0.3486-4.4968c1.5007-19.475 2.8392-38.574 2.7356-48.459-0.26563-25.351 5.8705-28.706 49.133-17.666 46.336 11.817 71.932 28.503 60.699 13.968-11.046-14.294-88.261-55.723-82.694-66.597 5.6174-10.972 8.4519-40.211 8.4519-40.211s2e-3 5.5e-4 7e-3 2e-3l0.0207 6e-3c0.45012 0.12451 6.794 1.9758 42.663 16.722 39.562 16.274 52.797 20.657 33.843-17.091-18.466-36.78-36.873-59.616-23.412-89.073 13.743-30.11 26.487-55.137 41.939-85.493zm1381 607.44s17.89 19.482 32.755 44.213l-61.77-2e-3c19.097-38.801 29.014-44.211 29.014-44.211zm-1146.3-96.795-0.33157 0.17532c-4.1864 2.2105-8.4903 4.5151-12.802 6.8687 9.413 9.5223 20.34 20.203 33.016 32.146 1.2006-0.25225 2.3815-0.50774 3.5476-0.76314-8.4919-11.971-16.312-25.037-23.43-38.427zm645.85 20.7c0.6054-1.8784-4.1443-0.34087-11.723 3.1278-1.5353 4.1341-3.1585 8.3974-4.8705 12.759 9.0934-6.7637 15.394-12.156 16.593-15.887zm-1018.2-82.31-0.7187 1.3584c-21.588 40.841-47.613 94.31-30.597 85.009 9.6917-5.3029 23.613-19.779 37.706-36.489-2.6616-19.587-5.0459-40.445-6.3922-46.166-0.254-1.0841-0.24874-2.3327 3e-3 -3.7126zm914.14 69.728-1.3743 1.8072c-1.9651 2.5762-3.9806 5.201-6.0473 7.8742 2.8249-1.7478 5.6297-3.4424 8.4107-5.0851-0.3471-1.6308-0.6774-3.1714-0.9891-4.5964zm87.505-86.451c-2.6022-3.1818-15.326-0.39859-30.551 4.5312-4.4622 7.3124-11.204 17.937-20.594 31.682 4.3843-1.9803 9.0755-3.6754 14.036-4.9706 36.568-9.552 44.311-22.442 37.11-31.243zm147.33-32.917-0.5659 0.32578c-32.81 18.826-73 43.785-57.307 44.773 8.8171 0.55227 24.226-3.1541 40.842-8.337 6.7995-14.757 14.359-30.286 15.951-34.847 0.2243-0.64038 0.5876-1.281 1.08-1.915z"
       fill="#4db1f1"
        />
    <path
       d="m265.14 657.53c0.23948-8.1619 39.594-4.2748 78.589 11.848 28.821 11.921 53.933 23.729 68.387 28.626l-149.38-8.9e-4c1.1696-18.415 2.2943-36.672 2.4048-40.473zm297.33-161.36s2.561 5.5123 16.366 45.397c13.802 39.889 18.879 52.29 30.677 21.33 11.793-30.958 15.266-56.723 41.141-57.321 25.878-0.59769 47.641 0.0443 73.47 0.8094 0 0-2.8714 51.642-5.9826 65.162-3.1136 13.521-0.99413 33.995-27.956 25.038-26.955-8.9733-46.19-2.7277-45.105 6.8278 1.0836 9.5596 49.598 25.975 49.598 25.975s-20.908 63.356-24.951 61.872c-2.5026-0.91341-22.998-12.828-43.321-24.498l-1.9656-1.1282c-11.783-6.7601-23.311-13.315-31.028-17.464-14.852-7.9813 21.913 27.353 45.922 49.832l-217.61 3e-3c-14.41-11.545-110.54-62.4-117.8-63.833-8.1204-1.6027 38.03-43.798 43.704-51.799 5.6781-8.0005 50.276 2.8489 87.439 35.254 37.163 32.412 53.438 34.245 55.116 23.413 1.6799-10.849-98.284-83.215-102.33-84.696-2.304-0.84481 17.781-11.198 38.569-22.125l2.1898-1.1519 2.1894-1.1538c14.217-7.5011 28.051-14.977 34.555-19.566 16.674-11.758 23.359-7.4734 46.564 36.773 23.206 44.245 29.21 71.641 31.005 56.721 1.7968-14.918-22.934-100.04-12.054-99.721 10.657 0.31659 30.769-9.5451 31.57-9.9396zm826.85-71.504c6.3581 0.0131 11.725 0.16257 15.123 0.51975 2.9134 0.30674 6.072 0.40798 9.2495 0.54005l1.0596 0.0455c14.128 0.63039 28.135 2.3884 22.167 26.021-7.4696 29.537 2.0093 49.125 13.076 46.862 11.07-2.2619 24.838-55.448 24.838-55.448s76.559 14.674 75.278 19.117c-1.2656 4.4386-30.789 61.688-41.87 85.685-11.085 24.007 71.48-76.271 71.48-76.271l71.13 6.3724s-68.937 132.61-44.648 113.44c24.282-19.176 74.256-104.01 74.256-104.01l0.1123 0.0279c3.6426 0.90727 94.654 23.735 89.429 38.329-5.327 14.887-48.074 132.52-17.275 92.58 30.799-39.939 54.547-88.075 54.547-88.075s-14.9-27.897 40.146 21.689c28.778 25.926 49.715 88.484 58.82 145.91l-400.78-2e-3c18.297-27.91 16.6-39.667 6.0525-40.082-5.1617-0.20131-20.027 17.95-36.086 40.082l-113-6.8e-4c-14.251-15.417-8.9762-23.345 38.975-52.286 49.211-29.702 80.625-39.258 62.948-39.408-17.671-0.15101-114.6 35.955-115.44 24.418-0.8472-11.529-15.211-32.221-15.211-32.221s0.075-0.0406 0.2675-0.13838l0.1172-0.0591c1.8775-0.94277 11.652-5.6578 50.942-22.412 45.164-19.254 59.119-26.07 21.528-34.911-37.592-8.8411-68.162-9.4891-71.772-36.761-3.6183-27.272-5.3145-50.347-7.324-77.728l0.072-4e-3c1.2907-0.0634 19.698-0.95956 38.621-1.4727l2.1037-0.0554c6.6634-0.16997 13.314-0.28693 19.23-0.29793z"
       fill="#58befa"
       />
</svg>
