<svg width="1403px" height="475px" version="1.1" viewBox="0 0 1403 475" xmlns="http://www.w3.org/2000/svg"><title>FEUILLE_HOME_BLUE_LIGHT_BOTTOM</title><g fill="none" fill-rule="evenodd"><g transform="translate(-48 -7977)"><g transform="translate(0 7640)"><g transform="translate(49.046 338.5)"><path d="m855.67 255.5c9.4028 6.201 16.543 15.321 19.673 26.41 6.2582-9.6728 15.697-16.34 26.502-19.501 3.1274 11.746 2.0037 24.286-4.1664 35.237-1.2119 2.1591-2.6105 4.1455-4.1145 6.0283 31.775 3.921 61.147 11.469 86.664 21.868-0.12274-6.5637 1.141-13.179 3.9399-19.449 5.1518-11.487 14.558-19.847 25.864-24.338 3.8898 10.554 4.2009 22.109 0.17115 32.853 10.753-4.0419 22.32-3.7655 32.881 0.10364-4.4602 11.314-12.826 20.728-24.307 25.892-1.5196 0.67364-3.0599 1.2609-4.6314 1.7791 32.179 19.348 54.151 44.171 61.042 71.744 4.317-10.901 12.501-19.378 22.694-24.572 4.8631 10.191 6.2477 21.719 3.2363 32.865 10.349-5.0694 21.893-5.8681 32.796-3.0035-1.2461 4.2882-3.0286 8.3681-5.3304 12.118 36.05 4.0625 67.011 15.365 87.208 30.868 18.033-16.406 42.297-27.795 69.59-31.354 0-6.1806 1.2288-12.378 3.8074-18.316 5.0535-11.58 14.399-20.069 25.683-24.67 3.9805 10.573 4.3786 22.17 0.44997 33.021 7.8399-3.0382 16.13-3.7674 24.16-2.4479 2.9594 0.48611 5.9015 1.2326 8.7571 2.2569-1.921 5.0347-4.6208 9.6875-7.9956 13.785 25.146 6.8056 46.728 20.451 61.715 38.385h-455.18c-0.19182-0.18556-0.38297-0.37247-0.57317-0.56089l-325.96-7.54e-4c-5.048-9.051-8.4191-18.517-9.9042-28.293-0.5705-3.7655-0.86439-7.5828-0.86439-11.435 0-14.734 4.2684-28.898 12.153-42.129-5.2918-3.8519-9.7347-8.7747-13.123-14.457 8.7493-4.9228 18.759-7.1683 28.819-5.9764 0.7088-0.74274 1.4176-1.4682 2.1437-2.1937-4.4931-9.2928-5.6185-19.657-3.6823-29.692 8.9741 1.9691 17.219 6.2874 23.702 12.799 4.7213-3.4028 9.733-6.6501 15.025-9.7592-3.0444-1.4682-5.9643-3.2819-8.6975-5.4582-9.8177-7.8765-15.542-19.087-17.009-31.16 11.201-1.0882 22.455 1.5373 31.844 8.1528-1.1946-11.417 2.0054-22.524 8.4347-31.765 9.8195 7.1855 16.821 17.653 18.913 30.055 0.77795 4.6464 0.81425 9.2756 0.19016 13.767 38.208-15.321 84.885-24.32 135.29-24.32 3.1827 0 6.3273 0.051818 9.4737 0.12091-1.5887-3.23-2.8335-6.6846-3.6304-10.329-2.6969-12.281-0.10373-24.597 6.3463-34.926z" fill="#E1F7FF"/><path transform="translate(511 236.5) scale(1 -1) translate(-511 -236.5)" d="m954.53 227.75c9.7909 20.256 12.243 42.846 8.0241 64.721-19.555-4.2921-37.521-13.705-51.648-27.899-10.288 7.4171-21.209 14.495-32.741 21.272 6.634 3.2003 12.997 7.1535 18.953 11.897 21.394 17.169 33.867 41.604 37.065 67.921-24.408 2.372-48.932-3.3509-69.392-17.771 2.6031 24.887-4.3699 49.096-18.38 69.239-21.398-15.663-36.655-38.479-41.213-65.511-1.6952-10.128-1.7743-20.218-0.41439-30.007-83.259 33.396-184.97 53.012-294.82 53.012-6.9354 0-13.788-0.11295-20.644-0.26355 3.462 7.0406 6.1744 14.571 7.9111 22.515 5.8768 26.769 0.22603 53.614-13.829 76.129-20.49-13.516-36.048-33.396-42.871-57.567-13.637 21.084-34.206 35.617-57.751 42.507-6.8148-25.602-4.3662-52.936 9.0789-76.806 2.6408-4.7063 5.6885-9.0361 8.9659-13.14-69.241-8.5466-133.25-25-188.85-47.665 0.26747 14.307-2.4863 28.727-8.5854 42.394-11.226 25.037-31.723 43.26-56.361 53.049-8.4762-23.004-9.1543-48.192-0.37295-71.611-23.432 8.8102-48.638 8.2078-71.652-0.2259 9.7193-24.661 27.949-45.18 52.967-56.438 3.3114-1.4684 6.6679-2.7485 10.092-3.878-73.682-44.314-122.81-101.81-135.05-165.59-2.0004-10.316-3.0137-20.821-3.0137-31.438 0-30.158 8.2125-59.261 23.466-86.596h972.95c11 19.729 18.346 40.361 21.582 61.671 1.2432 8.2078 1.8836 16.528 1.8836 24.924 0 32.116-9.3012 62.989-26.483 91.829 11.531 8.396 21.213 19.126 28.597 31.513-19.066 10.73-40.878 15.625-62.799 13.027-1.5445 1.619-3.0891 3.2003-4.6713 4.7816z" stroke="#BEE8F8"/></g></g></g></g></svg>
