<svg width="1089.5" height="303.79" xmlns="http://www.w3.org/2000/svg" xmlns:xlink="http://www.w3.org/1999/xlink"><defs><path id="a" d="M0 0h1440v700H0z"/></defs><g transform="translate(-350.45)" fill="none" fill-rule="evenodd"><mask id="b" fill="#fff"><use width="100%" height="100%" xlink:href="#a"/></mask><path d="M1159.5-40.786c-.684.825-1.376 1.645-2.076 2.46h305.88c5.048 9.128 8.42 18.675 9.904 28.536.57 3.798.865 7.648.865 11.533 0 14.861-4.269 29.146-12.153 42.491 5.291 3.885 9.734 8.85 13.123 14.582-8.75 4.966-18.76 7.23-28.82 6.028-.708.75-1.417 1.481-2.143 2.213 4.493 9.373 5.618 19.826 3.682 29.948-8.974-1.986-17.219-6.342-23.702-12.91-4.721 3.433-9.733 6.708-15.025 9.844a46.011 46.011 0 0 1 8.698 5.505c9.817 7.944 15.542 19.251 17.01 31.43-11.201 1.097-22.455-1.551-31.844-8.224 1.194 11.516-2.006 22.718-8.435 32.038-9.82-7.247-16.821-17.805-18.913-30.314a46.176 46.176 0 0 1-.19-13.885c-38.208 15.453-84.885 24.53-135.29 24.53-3.183 0-6.328-.052-9.474-.122a45.993 45.993 0 0 1 3.63 10.418c2.697 12.387.104 24.808-6.346 35.227-9.403-6.254-16.543-15.453-19.674-26.638-6.258 9.756-15.697 16.481-26.502 19.67-3.127-11.848-2.003-24.496 4.167-35.54 1.211-2.178 2.61-4.182 4.114-6.081-31.775-3.955-61.147-11.568-86.664-22.056a46.202 46.202 0 0 1-3.94 19.617c-5.152 11.585-14.558 20.017-25.864 24.547-3.89-10.645-4.2-22.3-.171-33.136-10.753 4.077-22.32 3.798-32.881-.105 4.46-11.41 12.826-20.906 24.307-26.115a49.87 49.87 0 0 1 4.631-1.794c-17.45-10.582-31.898-22.788-42.568-36.18a79.737 79.737 0 0 1-20.369-4.999c6.94 19.313 6.237 39.955-.794 58.774-19.932-8.189-36.44-23.299-45.366-43.91a82.047 82.047 0 0 1-6.726-32.601c-48.209-6.335-91.068-26.606-122.92-55.807-35.675 27.595-90.364 47.711-154.04 54.942 4.066 6.675 7.215 13.936 9.416 21.569-19.26 5.099-39.65 3.677-57.93-5.346 5.319 19.838 2.873 40.357-5.717 58.496-19.198-9.857-34.36-26.359-41.514-47.649a81.35 81.35 0 0 1-4.219-26.513 443.035 443.035 0 0 1-31.793-4.419 68.612 68.612 0 0 1 1.254 3.523c6.94 21.383 4.616 43.756-4.86 63.316-17.64-9.301-31.794-24.226-39.344-43.323-9.262 18.293-24.7 31.828-43.134 39.43-7.642-20.364-7.917-42.86.979-63.502A80.498 80.498 0 0 1 472.048 8.75 284.96 284.96 0 0 1 454.073.716a81.469 81.469 0 0 1-10.975 14.369c-15.53 16.13-36.225 24.443-57.746 25.03-.031-20.117 6.45-39.708 19.687-55.313-20.33.185-39.343-7.386-54.537-20.364 1.59-1.824 3.27-3.554 4.982-5.223z" fill="#e1f7ff" mask="url(#b)"/><path d="M1939.6 106.88a219.155 219.155 0 0 1-3.634 3.752c7.616 15.895 9.524 33.622 6.242 50.787-15.212-3.368-29.187-10.754-40.176-21.892-8.003 5.82-16.498 11.375-25.468 16.693a77.984 77.984 0 0 1 14.743 9.336c16.642 13.472 26.345 32.647 28.833 53.298-18.986 1.862-38.064-2.63-53.979-13.945 2.025 19.53-3.4 38.526-14.298 54.332-16.645-12.29-28.513-30.195-32.059-51.407a78.346 78.346 0 0 1-.322-23.547c-64.766 26.206-143.89 41.6-229.34 41.6-5.395 0-10.725-.09-16.06-.208 2.694 5.525 4.804 11.434 6.155 17.668 4.571 21.006.175 42.071-10.758 59.74-15.94-10.607-28.041-26.207-33.348-45.175-10.608 16.545-26.608 27.95-44.924 33.356-5.302-20.09-3.397-41.54 7.062-60.27 2.054-3.694 4.425-7.091 6.974-10.312-53.861-6.706-103.65-19.618-146.9-37.403.209 11.227-1.934 22.542-6.678 33.267-8.733 19.647-24.677 33.947-43.842 41.628-6.594-18.052-7.121-37.817-.29-56.194-18.227 6.914-37.835 6.441-55.737-.177 7.56-19.352 21.74-35.453 41.202-44.287a84.54 84.54 0 0 1 7.85-3.043c-57.316-34.774-95.53-79.888-105.05-129.94a130.55 130.55 0 0 1-2.344-24.67c0-23.665 6.388-46.503 18.254-67.952h756.85c8.557 15.481 14.271 31.672 16.788 48.394.967 6.44 1.465 12.97 1.465 19.558 0 25.201-7.235 49.428-20.6 72.06 8.97 6.588 16.5 15.008 22.244 24.728-14.83 8.42-31.798 12.261-48.85 10.222" mask="url(#b)" stroke="#bee8f8"/></g></svg>