<svg id="svg238" width="1093.9" height="384.56" version="1.1" viewBox="0 0 1093.9 384.56" xmlns="http://www.w3.org/2000/svg" xmlns:xlink="http://www.w3.org/1999/xlink"><title id="title2">Monkey Bleu</title><defs id="defs109"><path id="path-1" d="m156.65 143.22c26.805-2.5885 52.191-3.752 76.282-3.66l20.025 34.802-5.4803-34.551c37.853 1.067 72.015 5.2688 102.81 11.804l18.89 23.876-3.2046-20.203c13.842 3.3635 27.025 7.2816 39.501 11.461l18.416 62.369-0.8075-56c45.238 17.458 80.46 39.651 106.87 60.986l14.568 73.933 5.0276-56.923c33.867 31.562 47.983 57.393 47.983 57.393l0.11611 0.73201-210.65 33.314 32.325-40.38-53.151 28.816c-28.834-29.056-58.357-56.803-85.619-81.606l47.694-19.849-59.372 9.3899c-63.118-56.65-112.23-95.706-112.23-95.706z"/><filter id="filter-2" x="-.078912" y="-.30936" width="1.1578" height="1.4808"><feOffset id="feOffset5" dx="0" dy="-28" in="SourceAlpha" result="shadowOffsetOuter1"/><feGaussianBlur id="feGaussianBlur7" in="shadowOffsetOuter1" result="shadowBlurOuter1" stdDeviation="14.5"/><feColorMatrix id="feColorMatrix9" in="shadowBlurOuter1" values="0 0 0 0 0   0 0 0 0 0   0 0 0 0 0  0 0 0 0.0589966674 0"/></filter><path id="path-3" d="m495.65 143.22c26.805-2.5885 52.191-3.752 76.282-3.66l20.025 34.802-5.4803-34.551c37.853 1.067 72.015 5.2688 102.81 11.804l18.89 23.876-3.2046-20.203c13.842 3.3635 27.025 7.2816 39.501 11.461l18.416 62.369-0.8075-56c45.238 17.458 80.46 39.651 106.87 60.986l14.568 73.933 5.0276-56.923c33.867 31.562 47.983 57.393 47.983 57.393l0.11611 0.73201-210.65 33.314 32.325-40.38-53.151 28.816c-28.834-29.056-58.357-56.803-85.619-81.606l47.694-19.849-59.372 9.3899c-63.118-56.65-112.23-95.706-112.23-95.706z"/><filter id="filter-4" x="-.078912" y="-.30936" width="1.1578" height="1.4808"><feOffset id="feOffset13" dx="0" dy="-28" in="SourceAlpha" result="shadowOffsetOuter1"/><feGaussianBlur id="feGaussianBlur15" in="shadowOffsetOuter1" result="shadowBlurOuter1" stdDeviation="14.5"/><feColorMatrix id="feColorMatrix17" in="shadowBlurOuter1" values="0 0 0 0 0   0 0 0 0 0   0 0 0 0 0  0 0 0 0.0589966674 0"/></filter><linearGradient id="linearGradient-5" x1="87.964" x2="82.466" y1="166.01" y2="94.697" gradientTransform="scale(.65404 1.529)" gradientUnits="userSpaceOnUse"><stop id="stop20" stop-color="#007CE8" offset="0"/><stop id="stop22" stop-color="#00B0F0" offset="1"/></linearGradient><linearGradient id="linearGradient-6" x1="560.99" x2="560.99" y1="305.83" y2="192.66" gradientTransform="scale(.98946 1.0107)" gradientUnits="userSpaceOnUse"><stop id="stop25" stop-color="#008AFF" offset="0"/><stop id="stop27" stop-color="#00B6F4" offset="1"/></linearGradient><linearGradient id="linearGradient-7" x1="118.3" x2="56.313" y1="121.12" y2="33.912" gradientTransform="scale(1.0738 .93131)" gradientUnits="userSpaceOnUse"><stop id="stop30" stop-color="#00B6F4" offset="0"/><stop id="stop32" stop-color="#61EBF9" offset="1"/></linearGradient><path id="path-8" d="m850.7 234.59c39.594-2.7581 82.984-2.0109 130.43 3.2985l-12.906 42.186 31.109-39.947c30.093 4.1121 61.583 10.02 94.595 17.955 0 0-68.171 40.156-156.92 99.826l-72.478-22.144 56.063 33.156c-4.7518 3.2418-9.5547 6.5338-14.401 9.8732h-718.46c-4.8466-3.3394-9.6495-6.6314-14.401-9.8732l56.063-33.156-72.478 22.144c-88.746-59.671-156.92-99.826-156.92-99.826 33.012-7.9359 64.503-13.843 94.595-17.955l31.109 39.947-12.906-42.186c47.446-5.3094 90.836-6.0565 130.43-3.2985l27.775 26.502-7.5468-24.668c17.872 1.7716 35.019 4.3514 51.329 7.3821l33.939 74.656-10.837-69.792c59.543 13.864 107.41 35.398 144.13 57.408l21.164 39.773 6.2865-21.968c14.98 10.485 27.442 20.608 37.494 29.567 10.048-8.9589 22.51-19.082 37.49-29.567l-3.7135 21.968 31.164-39.773c36.721-22.009 84.591-43.544 144.13-57.408l-10.837 69.792 33.939-74.656c16.31-3.0306 33.457-5.6105 51.329-7.3821l-7.5468 24.668z"/><filter id="filter-9" x="-.031812" y="-.43081" width="1.0636" height="1.6695"><feOffset id="feOffset38" dx="0" dy="-28" in="SourceAlpha" result="shadowOffsetOuter1"/><feGaussianBlur id="feGaussianBlur40" in="shadowOffsetOuter1" result="shadowBlurOuter1" stdDeviation="14.5"/><feColorMatrix id="feColorMatrix42" in="shadowBlurOuter1" values="0 0 0 0 0   0 0 0 0 0   0 0 0 0 0  0 0 0 0.0589966674 0"/></filter><path id="path-10" d="m38.08 22.771h30.812c5.868 0 10.625 4.757 10.625 10.625 0 5.868-4.757 10.625-10.625 10.625h-30.812c-5.868 0-10.625-4.757-10.625-10.625 0-5.868 4.757-10.625 10.625-10.625z"/><filter id="filter-11" x="-.36495" y="0" width="1.3649" height="1"><feOffset id="feOffset46" dx="-19" dy="0" in="SourceAlpha" result="shadowOffsetInner1"/><feComposite id="feComposite48" in="shadowOffsetInner1" in2="SourceAlpha" k2="-1" k3="1" operator="arithmetic" result="shadowInnerInner1"/><feColorMatrix id="feColorMatrix50" in="shadowInnerInner1" values="0 0 0 0 0   0 0 0 0 0.71372549   0 0 0 0 0.956862745  0 0 0 0.136828016 0"/></filter><path id="path-12" d="m66.357 27.131h15.938c6.1614 0 11.156 4.9948 11.156 11.156s-4.9948 11.156-11.156 11.156h-15.938c-6.1614 0-11.156-4.9948-11.156-11.156s4.9948-11.156 11.156-11.156z"/><filter id="filter-13" x="-.26144" y="0" width="1.2614" height="1"><feOffset id="feOffset54" dx="-10" dy="0" in="SourceAlpha" result="shadowOffsetInner1"/><feComposite id="feComposite56" in="shadowOffsetInner1" in2="SourceAlpha" k2="-1" k3="1" operator="arithmetic" result="shadowInnerInner1"/><feColorMatrix id="feColorMatrix58" in="shadowInnerInner1" values="0 0 0 0 0   0 0 0 0 0.71372549   0 0 0 0 0.956862745  0 0 0 0.136828016 0"/></filter><path id="path-14" d="m14.668 19.106h36.55c5.868 0 10.625 4.757 10.625 10.625 0 5.868-4.757 10.625-10.625 10.625h-36.55c-5.868 0-10.625-4.757-10.625-10.625 0-5.868 4.757-10.625 10.625-10.625z"/><filter id="filter-15" x="-.38062" y="0" width="1.3806" height="1"><feOffset id="feOffset62" dx="-22" dy="0" in="SourceAlpha" result="shadowOffsetInner1"/><feComposite id="feComposite64" in="shadowOffsetInner1" in2="SourceAlpha" k2="-1" k3="1" operator="arithmetic" result="shadowInnerInner1"/><feColorMatrix id="feColorMatrix66" in="shadowInnerInner1" values="0 0 0 0 0   0 0 0 0 0.71372549   0 0 0 0 0.956862745  0 0 0 0.136828016 0"/></filter><path id="path-16" d="m-1.2983 23.254h26.563c6.1614 0 11.156 4.9948 11.156 11.156 0 6.1614-4.9948 11.156-11.156 11.156h-26.563c-6.1614 0-11.156-4.9948-11.156-11.156 0-6.1614 4.9948-11.156 11.156-11.156z"/><filter id="filter-17" x="-.34783" y="0" width="1.3478" height="1"><feOffset id="feOffset70" dx="-17" dy="0" in="SourceAlpha" result="shadowOffsetInner1"/><feComposite id="feComposite72" in="shadowOffsetInner1" in2="SourceAlpha" k2="-1" k3="1" operator="arithmetic" result="shadowInnerInner1"/><feColorMatrix id="feColorMatrix74" in="shadowInnerInner1" values="0 0 0 0 0   0 0 0 0 0.71372549   0 0 0 0 0.956862745  0 0 0 0.136828016 0"/></filter><path id="path-18" d="m38.08 22.771h30.812c5.868 0 10.625 4.757 10.625 10.625 0 5.868-4.757 10.625-10.625 10.625h-30.812c-5.868 0-10.625-4.757-10.625-10.625 0-5.868 4.757-10.625 10.625-10.625z"/><filter id="filter-19" x="-.36495" y="0" width="1.3649" height="1"><feOffset id="feOffset78" dx="-19" dy="0" in="SourceAlpha" result="shadowOffsetInner1"/><feComposite id="feComposite80" in="shadowOffsetInner1" in2="SourceAlpha" k2="-1" k3="1" operator="arithmetic" result="shadowInnerInner1"/><feColorMatrix id="feColorMatrix82" in="shadowInnerInner1" values="0 0 0 0 0   0 0 0 0 0.71372549   0 0 0 0 0.956862745  0 0 0 0.136828016 0"/></filter><path id="path-20" d="m66.357 27.131h15.938c6.1614 0 11.156 4.9948 11.156 11.156s-4.9948 11.156-11.156 11.156h-15.938c-6.1614 0-11.156-4.9948-11.156-11.156s4.9948-11.156 11.156-11.156z"/><filter id="filter-21" x="-.26144" y="0" width="1.2614" height="1"><feOffset id="feOffset86" dx="-10" dy="0" in="SourceAlpha" result="shadowOffsetInner1"/><feComposite id="feComposite88" in="shadowOffsetInner1" in2="SourceAlpha" k2="-1" k3="1" operator="arithmetic" result="shadowInnerInner1"/><feColorMatrix id="feColorMatrix90" in="shadowInnerInner1" values="0 0 0 0 0   0 0 0 0 0.71372549   0 0 0 0 0.956862745  0 0 0 0.136828016 0"/></filter><path id="path-22" d="m14.668 19.106h36.55c5.868 0 10.625 4.757 10.625 10.625 0 5.868-4.757 10.625-10.625 10.625h-36.55c-5.868 0-10.625-4.757-10.625-10.625 0-5.868 4.757-10.625 10.625-10.625z"/><filter id="filter-23" x="-.38062" y="0" width="1.3806" height="1"><feOffset id="feOffset94" dx="-22" dy="0" in="SourceAlpha" result="shadowOffsetInner1"/><feComposite id="feComposite96" in="shadowOffsetInner1" in2="SourceAlpha" k2="-1" k3="1" operator="arithmetic" result="shadowInnerInner1"/><feColorMatrix id="feColorMatrix98" in="shadowInnerInner1" values="0 0 0 0 0   0 0 0 0 0.71372549   0 0 0 0 0.956862745  0 0 0 0.136828016 0"/></filter><path id="path-24" d="m-1.2983 23.254h26.563c6.1614 0 11.156 4.9948 11.156 11.156 0 6.1614-4.9948 11.156-11.156 11.156h-26.563c-6.1614 0-11.156-4.9948-11.156-11.156 0-6.1614 4.9948-11.156 11.156-11.156z"/><filter id="filter-25" x="-.34783" y="0" width="1.3478" height="1"><feOffset id="feOffset102" dx="-17" dy="0" in="SourceAlpha" result="shadowOffsetInner1"/><feComposite id="feComposite104" in="shadowOffsetInner1" in2="SourceAlpha" k2="-1" k3="1" operator="arithmetic" result="shadowInnerInner1"/><feColorMatrix id="feColorMatrix106" in="shadowInnerInner1" values="0 0 0 0 0   0 0 0 0 0.71372549   0 0 0 0 0.956862745  0 0 0 0.136828016 0"/></filter><clipPath id="clipPath462"><rect id="rect464" transform="scale(1,-1)" x="29" y="-384.8" width="1093.9" height="447.48" fill="#58befa" stroke-width=".91388"/></clipPath></defs><g id="Desktop" transform="translate(-29 -.23841)" clip-path="url(#clipPath462)" fill="none" fill-rule="evenodd"><g id="Assets" transform="translate(-138,-237)"><g id="Monkey-Bleu" transform="translate(167,243)"><g id="leaf" transform="rotate(15 377.15 241.05)" fill-rule="nonzero"><use id="use111" width="100%" height="100%" fill="#000000" filter="url(#filter-2)" xlink:href="#path-1"/><use id="use113" width="100%" height="100%" fill="#29294e" xlink:href="#path-1"/></g><g id="g120" transform="matrix(-.96593 .25882 .25882 .96593 1345.5 -177.14)" fill-rule="nonzero"><use id="use116" width="100%" height="100%" fill="#000000" filter="url(#filter-4)" xlink:href="#path-3"/><use id="use118" width="100%" height="100%" fill="#29294e" xlink:href="#path-3"/></g><g id="Tail" transform="translate(758.92)"><path id="path122" d="m47.122 337.57c-81.88-199.78-57.053-308.89 74.483-327.34" stroke="url(#linearGradient-5)" stroke-linecap="round" stroke-width="32"/><path id="Path-2" transform="matrix(1 0 0 -1 0 35.782)" d="m119.96 10.999c11.521-2.8933 20.187-0.12131 26 8.316-8.009-2.5584-14.293-0.36645-18.852 6.5758" fill="#00b0f0"/><path id="path125" transform="matrix(1 0 0 -1 0 25.782)" d="m125.22 0.89104c11.511 5.3338 17.086 13.334 16.725 24-5.1541-7.3903-11.815-9.8051-19.984-7.2443" fill="#00b0f0"/></g><path id="Body" d="m521.23 133.91h49.858c52.467 0 95 42.533 95 95 0 2.5797-0.10507 5.1583-0.31496 7.7294l-11.614 142.27h-216l-11.614-142.27c-4.2688-52.293 34.663-98.146 86.956-102.41 2.5711-0.20989 5.1497-0.31496 7.7294-0.31496z" fill="url(#linearGradient-6)"/><g id="Head" transform="translate(394.16 55.798)"><path id="Oval-2" d="m148.02 0c31.283 0 75.582 10.735 96.479 38.749 7.6608 10.27 12.934 19.993 16.554 29.736l0.40186-0.0034c18.251 0 33.047 16.352 33.047 36.524 0 20.171-14.795 36.524-33.047 36.524l0.498-3e-3c-10.985 19.844-23.786 28.416-40.221 31.91-2.7968 28.93-21.984 53.068-48.161 63.01-8.8183 11.589-20.928 17.774-36.328 18.553 3.7754-3.175 6.7952-6.505 9.0596-9.9901-4.8393 1.8031-10.138 2.8504-15.897 3.1419 2.8278-2.378 5.2317-4.8431 7.2118-7.3952-36.252-4.4474-64.525-34.69-65.901-71.807-15.401-4.5834-27.455-12.782-36.913-27.445-0.4162 0.0157-0.83494 0.0244-1.2555 0.0244-18.251 3.8e-4 -33.047-16.352-33.047-36.523 0-20.171 14.795-36.524 33.047-36.524 0.99954 0 1.9887 0.04905 2.9657 0.14508 3.7707-9.2146 8.9847-18.467 16.135-28.289 21.001-28.849 63.5-40.338 95.371-40.338z" fill="url(#linearGradient-7)"/><path id="Rectangle-2" d="m178.54 69.521c23.915-11.138 52.33-0.78086 63.469 23.134 11.151 23.943 0.79633 52.393-23.136 63.567l-12.511 5.84 9.9e-4 2.0767c0 32.508-26.353 58.862-58.862 58.862-32.508 0-58.862-26.353-58.862-58.862l-4.14e-4 -2.0737-12.516-5.843c-23.933-11.173-34.288-39.624-23.136-63.567 11.138-23.915 39.554-34.272 63.469-23.134 0.0133 0.0062 0.0265 0.01236 0.0398 0.01855l24.144 11.272c2.4294 1.1342 4.7188 2.4464 6.8601 3.9138 2.14-1.4674 4.4295-2.7797 6.8589-3.9138l24.144-11.272c0.0133-0.0062 0.0265-0.01238 0.0398-0.01855z" fill="#fff"/><ellipse id="Oval" cx="100" cy="113.5" rx="18.5" ry="17.5" fill="#32325d"/><ellipse id="ellipse132" cx="201" cy="113.5" rx="18.5" ry="17.5" fill="#32325d"/><path id="path134" transform="matrix(.70711 -.70711 -.70711 -.70711 161.96 391.02)" d="m176.5 166c0-6.0751-4.9249-11-11-11s-11 4.9249-11 11" fill="#32325d"/><path id="path136" transform="rotate(225 132.5 160.5)" d="m143.5 166c0-6.0751-4.9249-11-11-11s-11 4.9249-11 11" fill="#32325d"/></g><g id="Patch" transform="matrix(-1 0 0 1 523.66 86.798)" fill-rule="nonzero"><path id="Path" d="m38.894 49.933c-2.8282 0-5.6564-1.0765-7.8095-3.2296l-5.3556-5.3556-2.0256-11.915-14.944-5.0549-5.5292-5.5292c-4.3062-4.3061-4.3062-11.313 0-15.619 4.3061-4.3061 11.313-4.3063 15.619 0l5.0335 5.0335 3.5548 14.05 14.232 3.7373 5.0336 5.0336c4.3062 4.3062 4.3062 11.313 0 15.619-2.153 2.1532-4.9812 3.2298-7.8095 3.2298z" fill="#ffe4c1"/><path id="path140" d="m46.703 31.084-5.0336-5.0336-2.6696 0.96705-6.349 7.026-7.6846 2.8208 0.76216 4.4834 5.3556 5.3556c2.1531 2.1531 4.9813 3.2296 7.8095 3.2296 2.8283 0 5.6566-1.0766 7.8097-3.2297 4.3061-4.3062 4.3061-11.313-9.8e-5 -15.619z" fill="#fdd1a3"/><path id="path142" d="m27.085 42.098c-0.38795 0-0.75992-0.15405-1.0341-0.42842l-17.787-17.787c-0.57116-0.57106-0.57116-1.4971 0-2.0683l13.551-13.551c0.27427-0.27427 0.64623-0.42842 1.0341-0.42842 0.38795 0 0.75992 0.15405 1.0341 0.42842l17.787 17.787c0.57116 0.57106 0.57116 1.4971 0 2.0683l-13.551 13.551c-0.27427 0.27427-0.64623 0.42832-1.0341 0.42832z" fill="#89e2ff"/><path id="path144" d="m41.67 26.05-16.703-16.703v31.238l1.0841 1.0841c0.27427 0.27427 0.64623 0.42841 1.0341 0.42841s0.75992-0.15405 1.0341-0.42841l13.551-13.551c0.57125-0.57106 0.57125-1.4971 0-2.0683z" fill="#ffbb85"/><g id="Group" transform="translate(17.258 17.258)" fill="#ccf2ff"><path id="path146" d="m6.692 0.45269c0.57116 0.57116 0.57116 1.4971 0 2.0683s-1.4971 0.57116-2.0683 0-0.57116-1.4971 0-2.0683 1.4971-0.57116 2.0683 0z"/><circle id="circle148" cx="9.7945" cy="5.6234" r="1.4625"/><path id="path150" d="m14.965 8.7259c0.57116 0.57116 0.57116 1.4971 0 2.0683-0.57115 0.57115-1.4971 0.57115-2.0683 0-0.57116-0.57116-0.57116-1.4971 0-2.0683s1.4971-0.57116 2.0683 0z"/><circle id="circle152" cx="1.4868" cy="5.6579" r="1.4625"/><path id="path154" d="m6.6575 8.7603c0.57116 0.57116 0.57116 1.4971 0 2.0683s-1.4971 0.57116-2.0683 0-0.57116-1.4971 0-2.0683c0.57116-0.57106 1.4971-0.57106 2.0683 0z"/><path id="path156" d="m10.794 12.897c0.57115 0.57116 0.57115 1.4971 0 2.0683-0.57116 0.57116-1.4971 0.57116-2.0683 0-0.57116-0.57115-0.57116-1.4971 0-2.0683s1.4971-0.57116 2.0683 0z"/></g><path id="Path-5" d="m46.703 31.084c4.3062 4.3062 4.3062 11.313 0 15.619-2.153 2.1532-4.9812 3.2298-7.8095 3.2298-2.8282 0-5.6564-1.0765-7.8095-3.2296l-27.855-27.855c-4.3062-4.3061-4.3062-11.313 0-15.619 4.3061-4.3061 11.313-4.3063 15.619 0z" fill="#08baf5" style="mix-blend-mode:color"/></g><rect id="thumb" transform="rotate(38 444.66 288.3)" x="434.66" y="270.8" width="20" height="35" rx="10" fill="#dcf5fd"/><rect id="rect162" transform="matrix(-.78801 .61566 .61566 .78801 950.58 -327.31)" x="623.66" y="278.8" width="20" height="35" rx="10" fill="#dcf5fd"/><g id="Combined-Shape" fill-rule="nonzero"><use id="use164" width="100%" height="100%" fill="#000000" filter="url(#filter-9)" xlink:href="#path-8"/><use id="use166" width="100%" height="100%" fill="#1f1f40" xlink:href="#path-8"/></g><g id="Hand" transform="rotate(197 243.11 131.73)"><rect id="Rectangle" x=".74784" y="32.683" width="81.812" height="35.062" rx="17.531" fill="#00b0f0"/><path id="path170" transform="matrix(.70711 -.70711 -.70711 -.70711 58.77 141.88)" d="m47.331 79.035c-3.5543-17.944 1.0663-31.227 13.862-39.847-4.2652 12.275-1.4217 22.089 8.5304 29.443" fill="#00b0f0"/><path id="path172" transform="matrix(.70711 -.70711 -.70711 -.70711 62.032 149.76)" d="m40.693 86.397c-3.5543-17.944 1.0663-31.227 13.862-39.847-4.2652 12.275-1.4217 22.089 8.5304 29.443" fill="#00b0f0"/><path id="path174" transform="rotate(225 28.127 67.477)" d="m16.352 83.779c1.012-17.15 8.5712-28.017 22.678-32.602-6.9812 10.044-6.69 19.651 0.8736 28.82" fill="#00b0f0"/><g id="g180" transform="rotate(-90 53.487 33.396)"><use id="use176" width="100%" height="100%" fill="#ffffff" fill-rule="evenodd" xlink:href="#path-10"/><use id="use178" width="100%" height="100%" fill="#000000" filter="url(#filter-11)" xlink:href="#path-10"/></g><g id="g186" transform="rotate(-90 74.326 38.287)"><use id="use182" width="100%" height="100%" fill="#ffffff" fill-rule="evenodd" xlink:href="#path-12"/><use id="use184" width="100%" height="100%" fill="#000000" filter="url(#filter-13)" xlink:href="#path-12"/></g><g id="g192" transform="rotate(-90 32.943 29.731)"><use id="use188" width="100%" height="100%" fill="#ffffff" fill-rule="evenodd" xlink:href="#path-14"/><use id="use190" width="100%" height="100%" fill="#000000" filter="url(#filter-15)" xlink:href="#path-14"/></g><g id="g198" transform="rotate(-90 11.983 34.41)"><use id="use194" width="100%" height="100%" fill="#ffffff" fill-rule="evenodd" xlink:href="#path-16"/><use id="use196" width="100%" height="100%" fill="#000000" filter="url(#filter-17)" xlink:href="#path-16"/></g></g><g id="g233" transform="matrix(.9563 -.29237 -.29237 -.9563 646.91 333.77)"><rect id="rect201" x=".74784" y="32.683" width="81.812" height="35.062" rx="17.531" fill="#00b0f0"/><path id="path203" transform="matrix(.70711 -.70711 -.70711 -.70711 58.77 141.88)" d="m47.331 79.035c-3.5543-17.944 1.0663-31.227 13.862-39.847-4.2652 12.275-1.4217 22.089 8.5304 29.443" fill="#00b0f0"/><path id="path205" transform="matrix(.70711 -.70711 -.70711 -.70711 62.032 149.76)" d="m40.693 86.397c-3.5543-17.944 1.0663-31.227 13.862-39.847-4.2652 12.275-1.4217 22.089 8.5304 29.443" fill="#00b0f0"/><path id="path207" transform="rotate(225 28.127 67.477)" d="m16.352 83.779c1.012-17.15 8.5712-28.017 22.678-32.602-6.9812 10.044-6.69 19.651 0.8736 28.82" fill="#00b0f0"/><g id="g213" transform="rotate(-90 53.487 33.396)"><use id="use209" width="100%" height="100%" fill="#ffffff" fill-rule="evenodd" xlink:href="#path-18"/><use id="use211" width="100%" height="100%" fill="#000000" filter="url(#filter-19)" xlink:href="#path-18"/></g><g id="g219" transform="rotate(-90 74.326 38.287)"><use id="use215" width="100%" height="100%" fill="#ffffff" fill-rule="evenodd" xlink:href="#path-20"/><use id="use217" width="100%" height="100%" fill="#000000" filter="url(#filter-21)" xlink:href="#path-20"/></g><g id="g225" transform="rotate(-90 32.943 29.731)"><use id="use221" width="100%" height="100%" fill="#ffffff" fill-rule="evenodd" xlink:href="#path-22"/><use id="use223" width="100%" height="100%" fill="#000000" filter="url(#filter-23)" xlink:href="#path-22"/></g><g id="g231" transform="rotate(-90 11.983 34.41)"><use id="use227" width="100%" height="100%" fill="#ffffff" fill-rule="evenodd" xlink:href="#path-24"/><use id="use229" width="100%" height="100%" fill="#000000" filter="url(#filter-25)" xlink:href="#path-24"/></g></g></g></g></g></svg>