<svg width="1441" height="733" xmlns="http://www.w3.org/2000/svg" xmlns:xlink="http://www.w3.org/1999/xlink"><defs><path id="a" d="M0 0h1440v732H0z"/><path id="b" d="M0 0h1440v732H0z"/></defs><g fill="none" fill-rule="evenodd"><use fill="#471443" xlink:href="#a" transform="translate(.454 .286)"/><g><mask id="c" fill="#fff"><use xlink:href="#b"/></mask><g mask="url(#c)" fill="#43093F"><path d="M118 551.358c-1.22.224-2.558.554-4 .97l4-.97zM-29.664 633.765C21.47 600.457 88.046 559.106 114 551.843l-160 37.473a179.848 179.848 0 0 0 16.336 44.449"/><path d="m348.824 619.527-198.067 4.63 195.687-30.767a240.841 240.841 0 0 0-6.69-31.263L150.756 614.53l180.659-76.647a233.821 233.821 0 0 0-24.117-44.793l-149.63 107.266 134.449-126.927c-10.552-12.227-22.334-23.24-35.137-32.815L137.408 608.629l98.854-181.727c-13.975-8.125-28.887-14.661-44.519-19.377l-54.803 192.83 30.953-198.487a205.18 205.18 0 0 0-31.574-3.02l-3.819 209.78-21.27-208.72a204.21 204.21 0 0 0-36.898 7.303l51.083 189.573-74.79-180.958c-16.133 7.006-31.293 16.026-45.206 26.76l122.42 166.043-142.556-148.455a227.43 227.43 0 0 0-28.606 34.416l152.034 110.76-166.024-87.234a236.59 236.59 0 0 0-17.994 45.991l193.265 58.673-199.132-31.19A245.773 245.773 0 0 0-84 628.83c0 7.696.362 15.305 1.058 22.81l200.9-20.865c32.837-6.193 156.612 24.097 226.989 42.561A245.153 245.153 0 0 0 349 628.83c0-3.117-.06-6.217-.176-9.303"/><path d="M142.399 837.178a1.9 1.9 0 0 1-1.01-.29c-.96-.595-1.286-1.907-.728-2.932 23.79-43.712 18.63-102.355 10.112-143.852-9.274-45.178-24.434-80.398-24.588-80.75-.464-1.073-.025-2.348.982-2.845 1.01-.498 2.205-.032 2.672 1.045.154.353 15.474 35.931 24.847 81.548 5.516 26.836 7.93 51.87 7.18 74.4-.94 28.297-6.903 52.724-17.725 72.607-.374.686-1.047 1.07-1.742 1.07M514 706.896c-1.22.225-2.558.553-4 .97l4-.97zM366.336 790.366C417.47 757.061 484.048 715.708 510 708.445l-160 37.473a179.933 179.933 0 0 0 16.336 44.448"/><path d="M744.893 705.177c0-3.118-.06-6.222-.176-9.31l-198.16 4.633 195.78-30.794a241.208 241.208 0 0 0-6.695-31.289l-189.085 52.449 180.741-76.715a234.05 234.05 0 0 0-24.124-44.831L553.472 676.678l134.512-127.035c-10.557-12.238-22.344-23.259-35.153-32.842l-119.629 168.16 98.902-181.884c-13.983-8.13-28.903-14.672-44.542-19.391l-54.828 192.992 30.967-198.657A205.479 205.479 0 0 0 532.112 475l-3.82 209.96-21.28-208.9a204.235 204.235 0 0 0-36.916 7.308l51.108 189.735-74.825-181.112c-16.14 7.014-31.31 16.04-45.228 26.785l121.257 164.529c-.068.058-.15.099-.21.166l-141.19-147.094a227.714 227.714 0 0 0-28.621 34.445l152.107 110.856-166.103-87.307a236.826 236.826 0 0 0-18.003 46.028l193.355 58.727-199.225-31.22a246.024 246.024 0 0 0-2.827 37.271c0 7.705.362 15.322 1.058 22.829l200.994-20.883c4.021-.758 9.416-.965 15.903-.717 5.143 14.644 11.813 35.957 16.79 60.135 7.23 35.113 12.04 82.505-1.136 122.725a31.963 31.963 0 0 0-7.025-.781c-13.547 0-24.532 8.283-24.532 18.5 0 10.216 10.985 18.498 24.532 18.498 13.55 0 24.533-8.282 24.533-18.498 0-7.266-5.567-13.535-13.647-16.559 4.931-15.063 7.773-31.95 8.396-50.55.751-22.513-1.67-47.522-7.196-74.334-4.83-23.436-11.233-44.2-16.336-58.912 48.301 3.073 146.894 27.366 206.813 43.093a245.46 245.46 0 0 0 4.055-44.546M1454.893-4.694c0 3.118-.06 6.222-.176 9.311l-198.16-4.634 195.78 30.794a241.209 241.209 0 0 1-6.695 31.29l-189.085-52.45 180.741 76.715a234.05 234.05 0 0 1-24.124 44.832L1263.472 23.806l134.512 127.035c-10.557 12.237-22.344 23.258-35.153 32.841L1243.202 15.523l98.902 181.884c-13.983 8.13-28.903 14.671-44.542 19.39l-54.828-192.991 30.967 198.656a205.479 205.479 0 0 1-31.589 3.021l-3.82-209.96-21.28 208.9a204.235 204.235 0 0 1-36.916-7.308l51.108-189.735-74.825 181.113c-16.14-7.015-31.31-16.04-45.228-26.786l121.257-164.528c-.068-.059-.15-.1-.21-.167l-141.19 147.094a227.714 227.714 0 0 1-28.621-34.445l152.107-110.856-166.103 87.308a236.826 236.826 0 0 1-18.003-46.028l193.355-58.727-199.225 31.219a246.024 246.024 0 0 1-2.827-37.27c0-7.706.362-15.323 1.058-22.83L1223.743-6.64c4.021.758 9.416.965 15.903.718 5.143-14.645 11.813-35.957 16.79-60.135 7.23-35.114 12.04-82.505-1.136-122.725-2.227.502-4.582.78-7.025.78-13.547 0-24.532-8.282-24.532-18.5 0-10.215 10.985-18.498 24.532-18.498 13.55 0 24.533 8.283 24.533 18.498 0 7.266-5.567 13.536-13.647 16.56 4.931 15.062 7.773 31.95 8.396 50.549.751 22.514-1.67 47.522-7.196 74.334-4.83 23.436-11.233 44.2-16.336 58.912 48.301-3.073 146.894-27.366 206.813-43.093a245.46 245.46 0 0 1 4.055 44.546"/></g></g></g></svg>