<svg width="109" height="96" xmlns="http://www.w3.org/2000/svg"><defs><filter color-interpolation-filters="auto" id="a"><feColorMatrix in="SourceGraphic" values="0 0 0 0 0.000000 0 0 0 0 0.690196 0 0 0 0 0.941176 0 0 0 1.000000 0"/></filter></defs><g fill="none" fill-rule="evenodd"><path d="M5.348 48c0 26.51 21.405 48 47.809 48 26.404 0 47.81-21.49 47.81-48S79.56 0 53.156 0C26.753 0 5.347 21.49 5.347 48z" fill="#E1F7FF" fill-rule="nonzero"/><path fill="#C5EDFD" fill-rule="nonzero" d="M18.394 36.628h67.09V83.6h-67.09z"/><path d="M93.428 9.154s0-4.432-3.53-4.432H14.862c-3.53 0-3.53 4.432-3.53 4.432h82.095z" stroke="#00B0F0" stroke-width="1.2" fill="#FFF" fill-rule="nonzero" stroke-linecap="round" stroke-linejoin="round"/><path d="M93.287 10.926s-6.18 15.954-7.063 17.725c-.883 1.771-1.765 1.773-1.765 1.773H19.277s-.883 0-1.765-1.773c-.882-1.772-6.18-17.725-6.18-17.725s-.883-2.66 1.766-2.66h78.426c2.646 0 1.763 2.66 1.763 2.66z" stroke="#00B0F0" stroke-width="1.2" fill="#C5EDFD" fill-rule="nonzero"/><path stroke="#00B0F0" stroke-width="1.2" fill="#FFF" fill-rule="nonzero" stroke-linecap="round" stroke-linejoin="round" d="M18.394 30.424h67.09v46.972h-67.09z"/><path stroke="#00B0F0" stroke-width="1.2" fill="#C5EDFD" fill-rule="nonzero" stroke-linecap="round" stroke-linejoin="round" d="M25.456 40.174h52.966v17.725H25.456zM43.994 61.444h15.89v8.863h-15.89zM27.222 30.424h49.434v5.317H27.222z"/><path d="M93.287 10.926s-6.18 15.954-7.063 17.725c-.883 1.771-1.765 1.773-1.765 1.773H19.277s-.883 0-1.765-1.773c-.882-1.772-6.18-17.725-6.18-17.725s-.883-2.66 1.766-2.66h78.426c2.646 0 1.763 2.66 1.763 2.66zM28.987 43.718h2.649M35.167 43.718h2.648M41.346 43.718h2.649M47.525 43.718h2.649M53.705 43.718h2.648M59.884 43.718h2.647M66.063 43.718h2.648M72.243 43.718h2.647M28.987 47.263h2.649M35.167 47.263h2.648M41.346 47.263h2.649M47.525 47.263h2.649M53.705 47.263h2.648M59.884 47.263h2.647M66.063 47.263h2.648M72.243 47.263h2.647M28.987 50.808h2.649M35.167 50.808h2.648M41.346 50.808h2.649M47.525 50.808h2.649M53.705 50.808h2.648M59.884 50.808h2.647M66.063 50.808h2.648M72.243 50.808h2.647M28.987 54.354h2.649M35.167 54.354h2.648M41.346 54.354H62.53M66.063 54.354h2.648M72.243 54.354h2.647" stroke="#00B0F0" stroke-width="1.2" stroke-linecap="round" stroke-linejoin="round"/><g filter="url(#a)" transform="translate(.99)"/><path d="M68.06 72.24a2.302 2.302 0 0 1 1.69-.517c.57.055 4.81.72 5.311.261 1.076-.992.395-3.005-1.598-4.86l-10.359-9.96a2.325 2.325 0 0 1-.155-3.261 2.303 2.303 0 0 1 3.247-.183l9.845 9.24-9.91-11.497a2.326 2.326 0 0 1-.578-2.277 2.305 2.305 0 0 1 3.932-.913l10.032 11.814-8.178-11.095a2.326 2.326 0 0 1 .562-3.207 2.304 2.304 0 0 1 3.202.517l1.815 2.562a2.313 2.313 0 0 1 1.61-2.301 2.3 2.3 0 0 1 2.632.957l8.698 13.125a39.276 39.276 0 0 1 5.69 10.595l2.35 2.866-10.255 8.473c-1.75-2.135-5.14-2.425-18.336-5.441a2.305 2.305 0 0 1-1.562-.833 2.324 2.324 0 0 1-.516-1.699c.059-.612.358-1.976.83-2.366z" fill="#C5EDFD" fill-rule="nonzero"/><path d="M71.274 72.749a2.302 2.302 0 0 1 1.69-.517c.57.055 1.596 1.01 2.097.552 1.076-.992.395-3.805-1.598-5.66l-7.245-6.764a2.325 2.325 0 0 1-.155-3.261 2.303 2.303 0 0 1 3.247-.183l6.731 6.044-7.411-8.103a2.326 2.326 0 0 1-.578-2.277 2.305 2.305 0 0 1 3.932-.913l7.533 8.42-5.017-7.264a2.326 2.326 0 0 1 .561-3.207 2.304 2.304 0 0 1 3.202.517l1.993 2.176a2.313 2.313 0 0 1 1.61-2.301 2.3 2.3 0 0 1 2.632.957l5.36 9.68a39.276 39.276 0 0 1 5.69 10.595l2.35 2.866-10.255 8.473c-1.75-2.135-1.925-1.916-15.122-4.932a2.305 2.305 0 0 1-1.562-.833c-.39-.475-.576-1.886-.516-2.499a2.32 2.32 0 0 1 .83-1.566z" fill="#FFF" fill-rule="nonzero"/><path d="M87.64 82.579c-1.75-2.135-5.14-2.425-18.336-5.441-1.27-.124-2.199-2.058-2.075-3.332a2.312 2.312 0 0 1 2.522-2.083c.569.055 4.81.72 5.31.261 1.076-.992-.402-3.005-2.395-4.86l-10.359-9.96a2.325 2.325 0 0 1-.155-3.261c.85-.946 3.095-1.027 4.044-.183l9.048 9.24-9.91-11.497c-.59-.598-.513-1.469-.28-2.277.232-.808 1.381-1.426 2.197-1.615.816-.19 1.67.079 2.233.702l10.033 11.814-8.178-11.095a2.326 2.326 0 0 1 .562-3.207c1.028-.736 3.251-.505 3.999.517l1.815 2.562a2.313 2.313 0 0 1 1.61-2.301 2.3 2.3 0 0 1 2.632.957l8.698 13.125c2.428 3.217 3.55 6.79 4.894 10.595l2.35 2.866M77.715 48.87l4.526 6.73" stroke="#00B0F0" stroke-width="1.2" stroke-linecap="round" stroke-linejoin="round"/><path d="M91.683 59.2c-.797 2.232-.592 4.127.615 5.684a5.935 5.935 0 0 0 1.436-2.134c.098-.57.102-1.183.012-1.841.13.124.255.248.377.373.062-.407.093-.835.093-1.282.975 1.293 1.57 2.633 1.787 4.022.385.915.553 1.857.503 2.825 2.46-.653 4.868-.412 7.226.722-1.378.265-2.513.736-3.407 1.415.323.183.648.386.977.609 1.448-.144 2.938-.659 4.47-1.542-.601 1.52-1.384 2.828-2.348 3.923 1.02-.292 2.061-.746 3.12-1.364-1.922 4.915-5.53 7.826-10.827 8.731-.439 2.027-1.317 3.814-2.632 5.363-1.063 1.792-2.557 3.347-4.481 4.663.685-2.172.883-4.175.594-6.008a8.153 8.153 0 0 0-.422 1.616 9.486 9.486 0 0 1-.574-1.276c-.544.845-.914 1.878-1.108 3.1-.918-1.726-1.277-3.433-1.079-5.124-3.158.76-6.037.24-8.635-1.556 1.253-.042 2.342-.277 3.265-.707a10.43 10.43 0 0 1-.742-.463 8.775 8.775 0 0 0 1.928-.265c.837-.662 1.48-1.553 1.927-2.673-1.942-.595-4.174-.612-6.697-.053 2.26-2.561 4.898-4.21 7.916-4.945-1.803-.801-3.924-.997-6.362-.587 1.95-1.601 3.91-2.652 5.877-3.153-.686-.388-1.34-1.033-1.96-1.93.77.26 1.353.353 1.75.278-.365-.662-.56-1.401-.59-2.217 1.057 1.315 2.331 1.68 3.82 1.094l-.055.332c.083.015.163.033.239.055.536-2.399 1.865-4.293 3.987-5.685z" stroke="#00B0F0" stroke-width="1.2" fill="#C5EDFD"/><path d="m90.27 83.233 4.748-5.024 6.706-5.1 5.194-1.766c-.221 1.178-.8 2.5-1.736 3.967-1.405 2.201-7.093 7.046-11.08 10.665-2.659 2.413-4.233 3.64-4.724 3.679l.893-6.421z" fill="#C5EDFD"/><g><path d="M40.94 73.84a2.302 2.302 0 0 0-1.69-.517c-.57.055-4.81.72-5.311.261-1.076-.992-.395-3.005 1.598-4.86l10.359-9.96a2.325 2.325 0 0 0 .155-3.261 2.303 2.303 0 0 0-3.247-.183l-9.845 9.24 9.91-11.497c.59-.598.811-1.469.578-2.277a2.305 2.305 0 0 0-3.932-.913L29.484 61.687l8.178-11.095a2.326 2.326 0 0 0-.562-3.207 2.304 2.304 0 0 0-3.202.517l-1.815 2.562a2.313 2.313 0 0 0-1.61-2.301 2.3 2.3 0 0 0-2.632.957l-8.698 13.125a39.276 39.276 0 0 0-5.69 10.595l-2.35 2.866 10.255 8.473c1.75-2.135 5.14-2.425 18.336-5.441a2.305 2.305 0 0 0 1.562-.833c.39-.475.576-1.086.516-1.699-.059-.612-.358-1.976-.83-2.366z" fill="#C5EDFD" fill-rule="nonzero"/><path d="M37.726 74.349a2.302 2.302 0 0 0-1.69-.517c-.57.055-1.596 1.01-2.097.552-1.076-.992-.395-3.805 1.598-5.66l7.245-6.764a2.325 2.325 0 0 0 .155-3.261 2.303 2.303 0 0 0-3.247-.183l-6.731 6.044 7.411-8.103c.59-.598.81-1.469.578-2.277a2.305 2.305 0 0 0-3.932-.913l-7.533 8.42 5.017-7.264a2.326 2.326 0 0 0-.561-3.207 2.304 2.304 0 0 0-3.202.517l-1.993 2.176a2.313 2.313 0 0 0-1.61-2.301 2.3 2.3 0 0 0-2.632.957l-5.36 9.68a39.276 39.276 0 0 0-5.69 10.595l-2.35 2.866 10.255 8.473c1.75-2.135 1.925-1.916 15.122-4.932a2.305 2.305 0 0 0 1.562-.833c.39-.475.576-1.886.516-2.499a2.32 2.32 0 0 0-.83-1.566z" fill="#FFF" fill-rule="nonzero"/><path d="M21.36 84.179c1.75-2.135 5.14-2.425 18.336-5.441 1.27-.124 2.199-2.058 2.075-3.332a2.312 2.312 0 0 0-2.522-2.083c-.569.055-4.81.72-5.31.261-1.076-.992.402-3.005 2.395-4.86l10.359-9.96a2.325 2.325 0 0 0 .155-3.261c-.85-.946-3.095-1.027-4.044-.183l-9.048 9.24 9.91-11.497c.59-.598.513-1.469.28-2.277-.232-.808-1.381-1.426-2.197-1.615-.816-.19-1.67.079-2.233.702L29.483 61.687l8.178-11.095a2.326 2.326 0 0 0-.562-3.207c-1.028-.736-3.251-.505-3.999.517l-1.815 2.562a2.313 2.313 0 0 0-1.61-2.301 2.3 2.3 0 0 0-2.632.957l-8.698 13.125c-2.428 3.217-3.55 6.79-4.894 10.595l-2.35 2.866M31.285 50.47l-4.526 6.73" stroke="#00B0F0" stroke-width="1.2" stroke-linecap="round" stroke-linejoin="round"/><path d="M17.317 60.8c.797 2.232.592 4.127-.615 5.684a5.935 5.935 0 0 1-1.436-2.134 6.026 6.026 0 0 1-.012-1.841c-.13.124-.255.248-.377.373a8.469 8.469 0 0 1-.093-1.282c-.975 1.293-1.57 2.633-1.787 4.022a6.352 6.352 0 0 0-.503 2.825c-2.46-.653-4.868-.412-7.226.722 1.378.265 2.513.736 3.407 1.415-.323.183-.648.386-.977.609-1.448-.144-2.938-.659-4.47-1.542.601 1.52 1.384 2.828 2.348 3.923-1.02-.292-2.061-.746-3.12-1.364 1.922 4.915 5.53 7.826 10.827 8.731.439 2.027 1.317 3.814 2.632 5.363 1.063 1.792 2.557 3.347 4.481 4.663-.685-2.172-.883-4.175-.594-6.008.188.49.328 1.03.422 1.616.23-.426.421-.852.574-1.276.544.845.914 1.878 1.108 3.1.918-1.726 1.277-3.433 1.079-5.124 3.158.76 6.037.24 8.635-1.556-1.253-.042-2.342-.277-3.265-.707.25-.141.498-.296.742-.463a8.775 8.775 0 0 1-1.928-.265c-.837-.662-1.48-1.553-1.927-2.673 1.942-.595 4.174-.612 6.696-.053-2.259-2.561-4.897-4.21-7.915-4.945 1.803-.801 3.924-.997 6.362-.587-1.95-1.601-3.91-2.652-5.877-3.153.686-.388 1.34-1.033 1.96-1.93-.77.26-1.353.353-1.75.278.365-.662.56-1.401.59-2.217-1.057 1.315-2.331 1.68-3.82 1.094l.055.332a2.888 2.888 0 0 0-.239.055c-.536-2.399-1.865-4.293-3.987-5.685z" stroke="#00B0F0" stroke-width="1.2" fill="#C5EDFD"/><path d="m18.73 84.833-4.748-5.024-6.706-5.1-5.194-1.766c.221 1.178.8 2.5 1.736 3.967 1.405 2.201 7.093 7.046 11.08 10.665 2.659 2.413 4.233 3.64 4.724 3.679l-.893-6.421z" fill="#C5EDFD"/></g></g></svg>