<?xml version="1.0" encoding="UTF-8" standalone="no"?>
<svg
   width="2384"
   height="720"
   viewBox="0 0 2384 720"
   version="1.1"
   xmlns="http://www.w3.org/2000/svg"
   xmlns:svg="http://www.w3.org/2000/svg">
  <path
     d="m 1262,597.18 c -20.274,17.734 -42.227,31.121 -65,40.186 v -484 c 1.5313,2.1258 3.1894,4.1566 4.9631,6.0605 8.1115,19.226 27.136,32.725 49.333,32.725 h 10.704 z m -101,50.829 c -9.2776,1.7903 -18.63,2.9074 -28,3.3569 v -503.94 l 25.728,-61.058 h 2.2724 z M 1095.524,103.269 1072,66.396 c 9.0393,-4.4937 16.626,-11.468 21.846,-20.034 4.6976,19.592 20.338,34.945 40.154,39.405 l -7.9227,15.91 c -6.0753,12.171 -23.227,13.059 -30.554,1.591 z m -465.52,406.09 v -24 c 6.717,2.819 14.113,4.4134 21.887,4.4134 h 5.1132 c -9.2642,5.7662 -18.283,12.299 -27,19.587 z m -348,111 C 263.788,607.161 246.653,590.774 231.1,571.126 l -7.0963,-8.9481 v -335.27 c 0,-16.685 7.2453,-32.567 19.855,-43.492 l 38.145,-33.052 z m 2063.9,-67.156 -5.8547,-7.3612 c -71.147,-89.73 -175.42,-112.23 -263.17,-67.462 v -91.053 c 0,-22.848 4.8276,-45.434 14.183,-66.269 l 109.21,-243.4 c 10.625,3.1867 22.239,4.9571 34.429,4.9571 50.138,0 90.773,-29.724 90.773,-66.401 0,-5.7939 -1.0047,-11.403 -2.9078,-16.772 h -175.75 c -1.8994,5.369 -2.9078,10.978 -2.9078,16.772 0,21.303 13.739,40.255 35.061,52.406 l -73.291,152.5 c -6.9712,14.517 -28.796,9.5602 -28.796,-6.5598 v -215.12 h -46.357 v 334.68 c 0,8.0898 -11.502,9.5621 -13.553,1.7536 l -88.256,-336.44 h -23.19 l 122.93,512.21 c -11.314,10.043 -22.107,21.431 -32.228,34.195 -47.473,59.877 -109.69,89.808 -171.93,89.808 -62.219,0 -124.44,-29.931 -171.91,-89.808 -47.477,-59.875 -109.7,-89.804 -171.91,-89.804 -62.238,0 -124.45,29.929 -171.93,89.804 l -3.4837,4.3999 v -357.75 h 10.718 c 12.841,0 24.623,-4.5472 33.848,-12.093 h 30.942 c 35.452,0 64.215,-28.737 64.215,-64.182 0,-17.725 -7.1968,-33.768 -18.809,-45.378 -11.629,-11.61 -27.68,-18.804 -45.406,-18.804 h -11.314 v -52.592 h -266.75 c -0.986,1.3231 -1.9012,2.6836 -2.7586,4.1018 -0.3355,-1.3977 -0.727,-2.7581 -1.1557,-4.1018 h -156.72 c -1.7148,5.2013 -2.6282,10.773 -2.6282,16.551 v 2.199 c 0,29.538 23.954,53.485 53.496,53.485 h 54.987 c 1.0065,0 2.013,-0.03727 3.0196,-0.09504 l 31.482,57.38 c 8.0336,14.631 12.246,31.066 12.246,47.766 v 472.68 c -52.079,-7.9557 -102.5,-37.139 -142.46,-87.549 l -12.714,-16.01 c -42.461,-53.559 -96.721,-83.135 -152.23,-88.779 2.9823,-6.7276 4.6599,-14.182 4.6599,-22.011 v -72.156 c 0,-0.50317 -0.0168,-1.0063 -0.0373,-1.5095 h 16.722 c 31.555,0 57.11,-25.57 57.11,-57.1 0,-15.766 -6.3934,-30.043 -16.72,-40.384 -10.345,-10.324 -24.623,-16.718 -40.39,-16.718 h -89.826 c -31.538,0 -57.112,25.55 -57.112,57.102 0,1.4517 0.0746,2.8886 0.1864,4.3049 h -9.6553 c -7.6795,0 -14.986,1.6213 -21.622,4.4912 v -62.374 h 8.5556 c 46.785,0 84.698,-37.905 84.698,-84.681 0,-8.6862 -1.3048,-17.072 -3.7466,-24.955 -2.4231,-7.8997 -5.9833,-15.28 -10.457,-22.009 l 3.7838,-62.54 c 1.7521,-28.606 -18.994,-53.373 -46.972,-57.084 -1.3048,-0.18636 -2.6095,-0.31495 -3.933,-0.38949 l -26.058,-1.5859 c -6.3374,-0.39135 -12.47,0.33731 -18.229,1.9754 -21.529,6.1517 -37.838,25.309 -39.255,48.919 l -2.0131,32.967 h -77.037 c -46.783,0 -84.698,37.926 -84.698,84.702 0,23.386 9.4894,44.558 24.809,59.875 15.322,15.321 36.496,24.806 59.889,24.806 h 49.264 v 349.37 c -66.655,63.155 -153.16,77.449 -228.8,42.881 v -522.05 h 70.513 c 23.244,0 42.069,-19.234 42.069,-42.974 0,-4.959 -0.82014,-9.7093 -2.3299,-14.126 16.981,-5.5349 29.264,-21.785 29.264,-40.943 0,-8.647 -2.4977,-16.7 -6.8016,-23.427 h -167.85 c -0.89469,0.98956 -1.6216,2.0891 -2.1063,3.3377 -0.87606,2.2158 -0.87606,4.6776 -0.85742,7.063 0.13048,18.71 0.0932,20.798 -9.5994,33.431 -8.8538,11.536 -17.202,18.545 -17.202,34.665 0,15.952 8.535,29.892 21.191,37.29 l -34.427,28.233 c -7.139,5.8498 -17.875,0.7827 -17.875,-8.4607 v -135 h -126.41 v 465.1 c -32.004,-10.009 -65.294,-11.722 -97.746,-5.1062 l 0.09741997,260.03984 2384.10880003,0.41246 -0.2062,-127.9923 c -13.476,-11.221 -26.244,-24.301 -38.097,-39.249 z"
     fill="#313257"/>
</svg>
