<?xml version="1.0" encoding="UTF-8" standalone="no"?>
<!DOCTYPE svg PUBLIC "-//W3C//DTD SVG 1.1//EN" "http://www.w3.org/Graphics/SVG/1.1/DTD/svg11.dtd">
<svg width="100%" height="100%" viewBox="0 0 1090 304" version="1.1" xmlns="http://www.w3.org/2000/svg" xmlns:xlink="http://www.w3.org/1999/xlink" xml:space="preserve" xmlns:serif="http://www.serif.com/" style="fill-rule:evenodd;clip-rule:evenodd;stroke-linejoin:round;stroke-miterlimit:2;">
    <g id="Desktop" transform="matrix(1,0,0,1,-350.45,0)">
        <g id="Assets">
            <g id="BG_EXPERTISE_BLUE_LIGHT">
                <path id="Combined-Shape" d="M1159.5,-40.786C1158.82,-39.961 1158.12,-39.141 1157.42,-38.326L1463.3,-38.327C1468.35,-29.198 1471.72,-19.651 1473.21,-9.79C1473.78,-5.992 1474.07,-2.142 1474.07,1.743C1474.07,16.604 1469.8,30.889 1461.92,44.234C1467.21,48.119 1471.65,53.085 1475.04,58.816C1466.29,63.782 1456.28,66.046 1446.22,64.844C1445.52,65.593 1444.81,66.325 1444.08,67.057C1448.57,76.43 1449.7,86.883 1447.76,97.005C1438.79,95.019 1430.54,90.663 1424.06,84.096C1419.34,87.528 1414.33,90.803 1409.04,93.939C1412.08,95.42 1415,97.249 1417.73,99.444C1427.55,107.388 1433.28,118.695 1434.74,130.873C1423.54,131.971 1412.29,129.323 1402.9,122.65C1404.09,134.166 1400.89,145.368 1394.46,154.688C1384.64,147.441 1377.64,136.883 1375.55,124.374C1374.77,119.688 1374.74,115.019 1375.36,110.489C1337.15,125.942 1290.48,135.019 1240.07,135.019C1236.89,135.019 1233.74,134.967 1230.6,134.897C1232.19,138.155 1233.43,141.639 1234.23,145.315C1236.92,157.702 1234.33,170.123 1227.88,180.542C1218.48,174.288 1211.34,165.089 1208.21,153.904C1201.95,163.66 1192.51,170.385 1181.7,173.573C1178.58,161.726 1179.7,149.078 1185.87,138.033C1187.08,135.856 1188.48,133.852 1189.99,131.953C1158.21,127.998 1128.84,120.385 1103.32,109.897C1103.44,116.517 1102.18,123.19 1099.38,129.514C1094.23,141.099 1084.82,149.531 1073.52,154.061C1069.63,143.416 1069.32,131.761 1073.35,120.925C1062.59,125.002 1051.03,124.723 1040.47,120.82C1044.93,109.409 1053.29,99.914 1064.77,94.705C1066.29,94.026 1067.83,93.434 1069.4,92.911C1051.95,82.329 1037.51,70.123 1026.84,56.731C1019.96,55.979 1013.12,54.33 1006.47,51.732C1013.41,71.045 1012.7,91.687 1005.67,110.506C985.741,102.317 969.234,87.207 960.307,66.596C955.752,56.028 953.581,44.996 953.581,33.995C905.372,27.66 862.513,7.389 830.661,-21.812C794.986,5.783 740.297,25.899 676.621,33.13C680.687,39.805 683.836,47.066 686.037,54.699C666.778,59.798 646.388,58.376 628.107,49.353C633.426,69.191 630.98,89.71 622.39,107.849C603.192,97.992 588.03,81.49 580.876,60.2C577.941,51.455 576.596,42.525 576.657,33.687C565.805,32.575 555.197,31.091 544.864,29.268C545.323,30.442 545.72,31.586 546.118,32.791C553.057,54.174 550.734,76.547 541.257,96.107C523.618,86.806 509.464,71.881 501.914,52.784C492.652,71.077 477.214,84.612 458.78,92.214C451.138,71.85 450.863,49.354 459.759,28.712C462.938,21.327 467.095,14.652 472.048,8.75C465.811,6.216 459.82,3.528 454.073,0.716C451.016,5.814 447.347,10.635 443.098,15.085C427.569,31.215 406.873,39.528 385.352,40.115C385.321,19.998 391.802,0.407 405.039,-15.198C384.71,-15.013 365.696,-22.584 350.502,-35.562C352.091,-37.386 353.773,-39.116 355.484,-40.785L1159.5,-40.786Z" style="fill:rgb(225,247,255);"/>
            </g>
        </g>
    </g>
</svg>
